<?xml version="1.0" standalone="no"?>
<!DOCTYPE svg PUBLIC "-//W3C//DTD SVG 20010904//EN"
 "http://www.w3.org/TR/2001/REC-SVG-20010904/DTD/svg10.dtd">
<svg version="1.0" xmlns="http://www.w3.org/2000/svg"
 width="512.000000pt" height="512.000000pt" viewBox="0 0 512.000000 512.000000"
 preserveAspectRatio="xMidYMid meet">

<g transform="translate(0.000000,512.000000) scale(0.100000,-0.100000)"
fill="#000000" stroke="none">
<path d="M335 3665 l-25 -24 0 -1081 0 -1081 25 -24 c23 -23 31 -25 132 -25
82 0 114 4 131 16 l22 15 0 1099 0 1099 -22 15 c-17 12 -49 16 -131 16 -101 0
-109 -2 -132 -25z"/>
<path d="M830 3684 c-41 -16 -40 6 -40 -1124 0 -922 2 -1089 14 -1106 12 -15
27 -19 81 -19 54 0 69 4 81 19 20 29 21 2182 0 2211 -13 19 -104 31 -136 19z"/>
<path d="M1172 3674 l-22 -15 0 -1099 0 -1099 22 -15 c18 -13 53 -16 170 -16
135 0 150 2 168 20 20 20 20 33 20 1110 0 1077 0 1090 -20 1110 -18 18 -33 20
-168 20 -117 0 -152 -3 -170 -16z"/>
<path d="M1722 3674 l-22 -15 0 -1099 0 -1099 22 -15 c15 -11 45 -16 90 -16
120 0 108 -130 108 1130 0 1260 12 1130 -108 1130 -45 0 -75 -5 -90 -16z"/>
<path d="M2112 3674 l-22 -15 0 -1099 0 -1099 22 -15 c32 -23 94 -20 118 4 20
20 20 33 20 1110 0 1077 0 1090 -20 1110 -24 24 -86 27 -118 4z"/>
<path d="M2442 3674 l-22 -15 0 -1099 0 -1099 22 -15 c18 -13 54 -16 185 -16
150 0 165 2 183 20 20 20 20 33 20 1110 0 1077 0 1090 -20 1110 -18 18 -33 20
-183 20 -131 0 -167 -3 -185 -16z"/>
<path d="M3022 3674 l-22 -15 0 -1099 0 -1099 22 -15 c15 -11 46 -16 95 -16
126 0 113 -133 113 1130 0 1263 13 1130 -113 1130 -49 0 -80 -5 -95 -16z"/>
<path d="M3422 3674 l-22 -15 0 -1099 0 -1099 22 -15 c17 -12 49 -16 135 -16
100 0 115 2 133 20 20 20 20 33 20 1110 0 1077 0 1090 -20 1110 -18 18 -33 20
-133 20 -86 0 -118 -4 -135 -16z"/>
<path d="M3902 3674 l-22 -15 0 -1099 0 -1099 22 -15 c13 -10 43 -16 73 -16
30 0 60 6 73 16 l22 15 0 1099 0 1099 -22 15 c-13 10 -43 16 -73 16 -30 0 -60
-6 -73 -16z"/>
<path d="M4260 3670 c-20 -20 -20 -33 -20 -1108 0 -909 2 -1091 14 -1107 10
-14 30 -20 79 -23 56 -4 68 -1 86 17 l21 21 0 1090 c0 1077 0 1090 -20 1110
-16 16 -33 20 -80 20 -47 0 -64 -4 -80 -20z"/>
<path d="M4632 3674 l-22 -15 0 -1099 0 -1099 22 -15 c14 -10 44 -16 76 -16
43 0 58 5 77 25 l25 24 0 1081 0 1081 -25 24 c-19 20 -34 25 -77 25 -32 0 -62
-6 -76 -16z"/>
</g>
</svg>
