<?xml version="1.0" standalone="no"?>
<!DOCTYPE svg PUBLIC "-//W3C//DTD SVG 20010904//EN"
 "http://www.w3.org/TR/2001/REC-SVG-20010904/DTD/svg10.dtd">
<svg version="1.0" xmlns="http://www.w3.org/2000/svg"
 width="512.000000pt" height="512.000000pt" viewBox="0 0 512.000000 512.000000"
 preserveAspectRatio="xMidYMid meet">

<g transform="translate(0.000000,512.000000) scale(0.100000,-0.100000)"
fill="#000000" stroke="none">
<path d="M1302 4285 c-661 -256 -1216 -473 -1232 -485 -35 -25 -70 -95 -70
-141 0 -43 30 -107 63 -138 16 -15 464 -192 1244 -492 1081 -417 1223 -469
1263 -466 62 6 2443 922 2483 956 36 31 66 94 67 140 0 50 -37 119 -79 146
-20 13 -576 231 -1235 484 -1043 401 -1206 461 -1250 460 -42 -1 -260 -81
-1254 -464z m2188 -266 c503 -194 918 -355 922 -358 5 -4 -411 -168 -922 -365
l-930 -357 -930 357 c-511 197 -927 360 -924 363 10 11 1829 709 1849 710 11
0 432 -157 935 -350z"/>
<path d="M373 2830 c-139 -54 -268 -107 -285 -117 -118 -69 -113 -244 7 -310
22 -11 575 -227 1230 -479 935 -360 1200 -458 1235 -458 35 0 303 99 1250 463
663 255 1220 475 1239 489 39 29 71 92 71 142 0 50 -32 113 -71 142 -19 14
-155 71 -302 128 l-268 102 -242 -92 c-133 -51 -246 -96 -250 -100 -8 -7 68
-39 315 -131 65 -24 118 -46 118 -49 -1 -3 -419 -166 -930 -362 l-929 -357
-925 356 c-509 196 -926 359 -926 363 0 4 87 40 193 80 105 40 203 79 217 86
l25 12 -25 10 c-208 82 -474 182 -483 181 -7 0 -126 -45 -264 -99z"/>
<path d="M357 1726 c-152 -59 -280 -114 -294 -128 -33 -30 -63 -94 -63 -137 0
-46 35 -116 70 -141 16 -12 573 -230 1237 -485 964 -371 1217 -465 1254 -465
37 0 288 93 1245 461 659 253 1215 471 1235 484 42 27 79 96 79 146 0 43 -30
107 -63 138 -24 22 -545 231 -577 231 -17 0 -481 -178 -492 -189 -4 -3 91 -44
212 -91 121 -46 217 -87 213 -91 -12 -10 -1836 -709 -1852 -709 -15 0 -1841
699 -1853 709 -4 3 92 44 212 91 121 46 220 87 220 90 0 7 -482 190 -500 190
-8 -1 -136 -47 -283 -104z"/>
</g>
</svg>
