<?xml version="1.0" standalone="no"?>
<!DOCTYPE svg PUBLIC "-//W3C//DTD SVG 20010904//EN"
 "http://www.w3.org/TR/2001/REC-SVG-20010904/DTD/svg10.dtd">
<svg version="1.0" xmlns="http://www.w3.org/2000/svg"
 width="512.000000pt" height="512.000000pt" viewBox="0 0 512.000000 512.000000"
 preserveAspectRatio="xMidYMid meet">

<g transform="translate(0.000000,512.000000) scale(0.100000,-0.100000)"
fill="#000000" stroke="none">
<path d="M712 4621 c-19 -12 -42 -40 -52 -64 -18 -39 -20 -68 -20 -360 l0
-319 -57 6 c-32 3 -153 7 -270 8 -201 3 -213 2 -240 -18 -15 -11 -38 -36 -51
-54 l-22 -33 2 -1418 3 -1418 21 -28 c44 -59 65 -64 317 -79 709 -40 962 -64
1294 -119 289 -49 559 -119 768 -200 132 -51 171 -54 247 -24 359 144 811 240
1383 293 159 15 294 24 742 50 252 15 273 20 317 79 l21 28 0 1424 c0 1422 0
1424 -21 1451 -11 15 -33 37 -48 48 -26 20 -43 21 -297 24 l-269 3 0 307 c0
281 -2 311 -20 349 -38 84 -105 99 -313 68 -330 -50 -643 -147 -934 -289 -233
-114 -417 -238 -577 -387 l-76 -71 -77 73 c-195 182 -452 341 -756 467 -271
113 -649 207 -882 218 -89 5 -104 3 -133 -15z m478 -346 c464 -114 838 -307
1108 -570 l112 -110 0 -1300 0 -1299 -37 36 c-57 53 -219 179 -303 235 -289
191 -624 344 -943 429 -72 20 -143 39 -157 43 l-25 8 -3 1287 -2 1288 57 -7
c31 -4 118 -22 193 -40z m2988 -1242 l-3 -1286 -25 -8 c-14 -4 -85 -23 -157
-43 -449 -120 -947 -386 -1245 -665 l-38 -35 0 1298 0 1298 83 85 c265 274
669 485 1142 598 155 37 177 42 218 44 l27 1 -2 -1287z m642 -657 l0 -1225
-42 -5 c-24 -3 -140 -10 -258 -16 -496 -25 -951 -76 -1265 -140 -49 -10 -91
-17 -93 -15 -1 1 48 35 110 76 300 194 631 326 1041 414 91 19 141 55 157 113
6 24 10 387 10 1030 l0 992 170 0 170 0 0 -1224z m-4257 1208 l77 -7 2 -1003
c3 -995 3 -1003 24 -1030 36 -49 67 -63 204 -94 269 -60 471 -131 705 -246
128 -63 392 -221 383 -229 -2 -2 -57 8 -124 21 -336 65 -822 117 -1319 139
-72 3 -149 8 -172 11 l-43 5 0 1220 0 1219 93 0 c52 0 128 -3 170 -6z"/>
<path d="M1390 3442 c-38 -21 -80 -90 -80 -130 0 -40 37 -106 69 -125 16 -9
73 -28 125 -42 103 -26 185 -59 281 -114 104 -59 109 -61 150 -61 108 0 180
123 129 221 -32 62 -253 180 -439 234 -127 37 -191 41 -235 17z"/>
<path d="M1387 2588 c-40 -23 -77 -86 -77 -129 0 -13 9 -43 20 -66 22 -49 60
-71 175 -99 40 -10 137 -52 225 -97 167 -85 208 -94 267 -63 88 45 102 171 28
242 -44 41 -276 156 -395 194 -130 43 -194 47 -243 18z"/>
<path d="M3535 3436 c-190 -50 -426 -167 -472 -236 -64 -93 9 -230 122 -230
41 0 47 3 150 62 86 49 201 95 294 117 44 11 94 27 111 37 33 20 70 85 70 124
0 44 -38 105 -79 128 -48 27 -83 27 -196 -2z"/>
<path d="M3550 2589 c-178 -48 -447 -186 -484 -248 -40 -69 -16 -165 53 -205
59 -34 102 -25 251 52 129 67 215 101 308 123 24 5 54 16 67 25 28 18 65 89
65 124 0 44 -38 105 -79 128 -47 27 -83 27 -181 1z"/>
</g>
</svg>
