<?xml version="1.0" standalone="no"?>
<!DOCTYPE svg PUBLIC "-//W3C//DTD SVG 20010904//EN"
 "http://www.w3.org/TR/2001/REC-SVG-20010904/DTD/svg10.dtd">
<svg version="1.0" xmlns="http://www.w3.org/2000/svg"
 width="512.000000pt" height="512.000000pt" viewBox="0 0 512.000000 512.000000"
 preserveAspectRatio="xMidYMid meet">

<g transform="translate(0.000000,512.000000) scale(0.100000,-0.100000)"
fill="#000000" stroke="none">
<path d="M1737 5099 c-25 -13 -44 -34 -57 -62 -22 -46 -620 -2445 -620 -2485
0 -37 29 -90 64 -115 30 -22 38 -22 412 -27 l380 -5 -277 -1115 c-153 -613
-278 -1128 -279 -1143 0 -46 36 -105 80 -127 51 -26 96 -25 142 3 27 15 389
463 1242 1534 663 831 1212 1525 1220 1542 35 66 5 156 -64 191 -38 19 -58 20
-535 20 l-495 0 405 810 c303 606 405 819 405 846 0 53 -34 111 -80 134 -38
20 -56 20 -972 20 -913 -1 -934 -1 -971 -21z m1228 -1089 c-303 -606 -405
-819 -405 -846 0 -53 34 -111 80 -134 38 -19 58 -20 495 -20 258 0 455 -4 453
-9 -8 -21 -1753 -2201 -1755 -2194 -2 5 93 397 212 872 118 474 215 873 215
887 0 36 -35 98 -67 120 -26 18 -56 19 -409 24 l-380 5 258 1040 c142 572 260
1046 263 1053 3 9 158 12 725 12 l720 0 -405 -810z"/>
</g>
</svg>
