<?xml version="1.0" standalone="no"?>
<!DOCTYPE svg PUBLIC "-//W3C//DTD SVG 20010904//EN"
 "http://www.w3.org/TR/2001/REC-SVG-20010904/DTD/svg10.dtd">
<svg version="1.0" xmlns="http://www.w3.org/2000/svg"
 width="512.000000pt" height="512.000000pt" viewBox="0 0 512.000000 512.000000"
 preserveAspectRatio="xMidYMid meet">

<g transform="translate(0.000000,512.000000) scale(0.100000,-0.100000)"
fill="#000000" stroke="none">
<path d="M1737 5099 c-25 -13 -44 -34 -57 -62 -22 -46 -620 -2445 -620 -2485
0 -37 29 -90 64 -115 30 -22 38 -22 412 -27 l380 -5 -277 -1115 c-153 -613
-278 -1128 -279 -1143 0 -46 36 -105 80 -127 51 -26 96 -25 142 3 27 16 388
462 1245 1538 665 833 1214 1528 1221 1543 30 65 -2 152 -68 186 -38 19 -58
20 -530 20 -300 0 -490 4 -490 9 0 6 180 370 400 811 297 596 400 810 400 836
0 53 -34 111 -80 134 -38 20 -56 20 -972 20 -913 -1 -934 -1 -971 -21z"/>
</g>
</svg>
