<?xml version="1.0" standalone="no"?>
<!DOCTYPE svg PUBLIC "-//W3C//DTD SVG 20010904//EN"
 "http://www.w3.org/TR/2001/REC-SVG-20010904/DTD/svg10.dtd">
<svg version="1.0" xmlns="http://www.w3.org/2000/svg"
 width="512.000000pt" height="512.000000pt" viewBox="0 0 512.000000 512.000000"
 preserveAspectRatio="xMidYMid meet">

<g transform="translate(0.000000,512.000000) scale(0.100000,-0.100000)"
fill="#000000" stroke="none">
<path d="M2477 4785 c-45 -17 -1903 -1470 -1945 -1520 -16 -20 -34 -53 -41
-74 -8 -28 -11 -339 -11 -1124 0 -895 2 -1098 14 -1159 56 -290 284 -518 574
-574 100 -19 1422 -21 1486 -2 86 26 166 136 166 228 0 92 -80 202 -166 228
-31 9 -216 12 -716 12 -726 0 -717 -1 -789 52 -17 13 -43 43 -57 68 l-27 45
-2 1020 -2 1020 794 620 c437 341 800 620 807 619 8 -1 370 -280 806 -620
l791 -619 1 -1001 c0 -1119 4 -1058 -71 -1133 -42 -42 -110 -71 -167 -71 -127
0 -242 -114 -242 -238 0 -65 22 -115 75 -167 75 -76 145 -90 299 -61 257 50
462 232 553 491 l28 80 3 1120 c2 850 0 1131 -9 1164 -8 27 -29 61 -58 92 -55
58 -1860 1471 -1911 1496 -46 22 -135 26 -183 8z"/>
<path d="M3120 787 c-49 -16 -133 -102 -148 -153 -28 -94 -8 -169 63 -239 102
-103 243 -101 338 5 90 100 90 220 0 320 -65 72 -158 97 -253 67z"/>
</g>
</svg>
